<mxfile host="app.diagrams.net" modified="2023-06-02T08:48:55.888Z" agent="Mozilla/5.0 (Windows NT 10.0; Win64; x64) AppleWebKit/537.36 (KHTML, like Gecko) Chrome/113.0.0.0 Safari/537.36" etag="raYIgTZo76XZpCgxIoX_" version="21.3.6" type="device">
  <diagram id="KvvrwMuVlmMxPgiAzHgi" name="Page-1">
    <mxGraphModel dx="1050" dy="1649" grid="1" gridSize="10" guides="1" tooltips="1" connect="1" arrows="1" fold="1" page="1" pageScale="1" pageWidth="850" pageHeight="1100" math="0" shadow="0">
      <root>
        <mxCell id="0" />
        <mxCell id="1" parent="0" />
        <mxCell id="043dj27RT6WfqoquZcTv-1" value="Guitar" style="swimlane;fontStyle=1;align=center;verticalAlign=top;childLayout=stackLayout;horizontal=1;startSize=26;horizontalStack=0;resizeParent=1;resizeParentMax=0;resizeLast=0;collapsible=1;marginBottom=0;whiteSpace=wrap;html=1;" parent="1" vertex="1">
          <mxGeometry x="160" y="-870" width="310" height="430" as="geometry" />
        </mxCell>
        <mxCell id="043dj27RT6WfqoquZcTv-2" value="serialNumber : int&lt;br&gt;price:double&lt;br&gt;builder:String&lt;br&gt;model:String&lt;br&gt;backWood:String&lt;br&gt;topWood:String" style="text;strokeColor=none;fillColor=none;align=left;verticalAlign=top;spacingLeft=4;spacingRight=4;overflow=hidden;rotatable=0;points=[[0,0.5],[1,0.5]];portConstraint=eastwest;whiteSpace=wrap;html=1;" parent="043dj27RT6WfqoquZcTv-1" vertex="1">
          <mxGeometry y="26" width="310" height="124" as="geometry" />
        </mxCell>
        <mxCell id="043dj27RT6WfqoquZcTv-3" value="" style="line;strokeWidth=1;fillColor=none;align=left;verticalAlign=middle;spacingTop=-1;spacingLeft=3;spacingRight=3;rotatable=0;labelPosition=right;points=[];portConstraint=eastwest;strokeColor=inherit;" parent="043dj27RT6WfqoquZcTv-1" vertex="1">
          <mxGeometry y="150" width="310" height="8" as="geometry" />
        </mxCell>
        <mxCell id="043dj27RT6WfqoquZcTv-4" value="public Guitar ()&lt;br&gt;&lt;br&gt;public Guitar(int serialNumber,double price,String builder,String model,String backWood,String topWood)&lt;br&gt;&lt;br&gt;SetserialNumber(int serialNumber): void&lt;br&gt;GetserialNumber(): int&lt;br&gt;Setprice(double price) : void&amp;nbsp;&lt;br&gt;Getprice(): double&lt;br&gt;Getbuilder():String&lt;br&gt;Setbuilder(String builder):void&lt;br&gt;Getmodel():String&lt;br&gt;Setmodel(String model):void&lt;br&gt;SetbackWood(String backWood):void&lt;br&gt;GetbackWood():String&lt;br&gt;SettopWood(String topWood) : void&lt;br&gt;GettopWood():String&lt;br&gt;createSound(): void" style="text;strokeColor=none;fillColor=none;align=left;verticalAlign=top;spacingLeft=4;spacingRight=4;overflow=hidden;rotatable=0;points=[[0,0.5],[1,0.5]];portConstraint=eastwest;whiteSpace=wrap;html=1;" parent="043dj27RT6WfqoquZcTv-1" vertex="1">
          <mxGeometry y="158" width="310" height="272" as="geometry" />
        </mxCell>
        <mxCell id="p-kA9jbt-NqNTZG3fOJ--1" value="Inventory" style="swimlane;fontStyle=1;align=center;verticalAlign=top;childLayout=stackLayout;horizontal=1;startSize=26;horizontalStack=0;resizeParent=1;resizeParentMax=0;resizeLast=0;collapsible=1;marginBottom=0;whiteSpace=wrap;html=1;" vertex="1" parent="1">
          <mxGeometry x="600" y="-870" width="290" height="160" as="geometry" />
        </mxCell>
        <mxCell id="p-kA9jbt-NqNTZG3fOJ--2" value="-guitar() :List&amp;lt;Guitar&amp;gt;" style="text;strokeColor=none;fillColor=none;align=left;verticalAlign=top;spacingLeft=4;spacingRight=4;overflow=hidden;rotatable=0;points=[[0,0.5],[1,0.5]];portConstraint=eastwest;whiteSpace=wrap;html=1;" vertex="1" parent="p-kA9jbt-NqNTZG3fOJ--1">
          <mxGeometry y="26" width="290" height="26" as="geometry" />
        </mxCell>
        <mxCell id="p-kA9jbt-NqNTZG3fOJ--3" value="" style="line;strokeWidth=1;fillColor=none;align=left;verticalAlign=middle;spacingTop=-1;spacingLeft=3;spacingRight=3;rotatable=0;labelPosition=right;points=[];portConstraint=eastwest;strokeColor=inherit;" vertex="1" parent="p-kA9jbt-NqNTZG3fOJ--1">
          <mxGeometry y="52" width="290" height="8" as="geometry" />
        </mxCell>
        <mxCell id="p-kA9jbt-NqNTZG3fOJ--4" value="addGuitar(guitar:Guitar):void&lt;br&gt;searchbySerialNumber(SerialNumber: String ):Guitar ()&amp;nbsp;" style="text;strokeColor=none;fillColor=none;align=left;verticalAlign=top;spacingLeft=4;spacingRight=4;overflow=hidden;rotatable=0;points=[[0,0.5],[1,0.5]];portConstraint=eastwest;whiteSpace=wrap;html=1;" vertex="1" parent="p-kA9jbt-NqNTZG3fOJ--1">
          <mxGeometry y="60" width="290" height="100" as="geometry" />
        </mxCell>
      </root>
    </mxGraphModel>
  </diagram>
</mxfile>
